<?xml version="1.0" encoding="UTF-8"?>
<svg id="Layer_2" data-name="Layer 2" xmlns="http://www.w3.org/2000/svg" viewBox="0 0 256.2 91.74">
  <defs>
    <style>
      .cls-1 {
        fill: #004698;
      }
    </style>
  </defs>
  <g id="Layer_5" data-name="Layer 5">
    <g>
      <path class="cls-1" d="M43.14,19.32h-.06c-4.5-10.32-9.54-15.24-14.94-15.9v41.22h5.4v.96H9.54v-.96h5.4V3.42C9.6,4.08,4.56,9,.06,19.32h-.06V2.4h43.14v16.92Z"/>
      <path class="cls-1" d="M82.98,44.64v.96h-17.4v-.96h2.4v-18.06c0-4.68-1.14-6.24-3.6-6.24-1.2,0-2.4.36-3.6.9v23.4h2.4v.96h-17.4v-.96h3V8.94l-3.42-2.94L60.78.6v19.8c3.9-3.36,7.38-5.7,11.46-5.7,5.1,0,7.74,3.18,7.74,9.3v20.64h3Z"/>
      <path class="cls-1" d="M85.2,44.64h3v-21.9l-3.42-2.94,15.42-5.4v30.24h3v.96h-18v-.96ZM87.54,6.66c0-3.96,2.4-6.66,6.66-6.66s6.66,2.7,6.66,6.66-2.4,6.72-6.66,6.72-6.66-2.7-6.66-6.72Z"/>
      <path class="cls-1" d="M131.64,15.12v15.9h-.06c-6.24-6.9-9.06-8.46-11.16-8.1v21.72h4.5v.96h-19.5v-.96h3v-21.78l-3.42-2.94,15.42-5.16v7.5c3.42-4.5,7.32-7.32,10.08-7.32.42,0,.78.06,1.14.18Z"/>
      <path class="cls-1" d="M256.2,44.64v.96h-17.4v-.96h2.4v-18.06c0-4.68-1.14-6.24-3.6-6.24-1.2,0-2.4.36-3.6.9v23.4h2.4v.96h-17.4v-.96h3v-21.9l-3.42-2.94,15.42-5.4v6c3.9-3.36,7.38-5.7,11.46-5.7,5.1,0,7.74,3.18,7.74,9.3v20.64h3Z"/>
      <path class="cls-1" d="M138.12,34.2c0,4.15.81,7.27,2.63,9.29h15.91c1.27-.96,2.31-2.12,3.12-3.41l-.06-.06c-1.2.48-2.22.66-3.54.66-4.44,0-6.06-2.58-6.06-9.54v-13.98h8.46v-.96h-8.46V4.02l-16.62,13.08v.06h4.62v17.04Z"/>
      <path class="cls-1" d="M171.17,45.48c2.78-2.03,6.48-3.19,10.83-3.19,1.5,0,2.91.08,4.28.22.72-.69,1.37-1.45,1.93-2.31l-.06-.06c-.54.12-1.14.18-1.74.18-4.02,0-8.34-2.22-11.76-5.58,7.2-2.7,11.04-7.08,11.04-12.06,0-4.38-3.9-7.68-9.54-7.68-9.6,0-15.48,7.26-15.48,16.02,0,7.41,4.42,12.63,10.5,14.46ZM170.58,17.1c2.58,0,6.06,4.44,6.06,9.66,0,3.06-.66,5.46-2.34,7.62-3.6-3.72-6.18-8.76-6.18-13.74,0-2.22.9-3.54,2.46-3.54Z"/>
      <path class="cls-1" d="M208.82,41.09c2.37,0,4.31.78,5.64,2.16,1.07-.85,2.01-1.86,2.8-3.05l-.06-.06c-.54.12-1.14.18-1.74.18-4.02,0-8.34-2.22-11.76-5.58,7.2-2.7,11.04-7.08,11.04-12.06,0-4.38-3.9-7.68-9.54-7.68-9.6,0-15.48,7.26-15.48,16.02,0,7.97,5.12,13.42,11.9,14.81,1.01-2.95,3.61-4.74,7.2-4.74ZM199.62,17.1c2.58,0,6.06,4.44,6.06,9.66,0,3.06-.66,5.46-2.34,7.62-3.6-3.72-6.18-8.76-6.18-13.74,0-2.22.9-3.54,2.46-3.54Z"/>
      <g>
        <path class="cls-1" d="M156.32,81.54v8.04h5.1v.96h-21.9v-.96h3.6v-8.04h-15.9v-1.2c6.18-5.82,11.7-21.54,12.6-33h17.16c-4.92,11.7-12.3,20.58-28.26,33h14.4v-8.28l13.2-4.44v12.72h5.7v1.2h-5.7Z"/>
        <path class="cls-1" d="M165.02,89.34l3.54-15.36h.06l8.34,15.72c1.32.54,2.04.6,3.12.6,4.26,0,7.38-2.82,7.38-6.66,0-2.88-1.56-5.34-5.04-7.2l-6.84-3.72c-5.58-3.06-8.88-7.14-8.88-13.2,0-7.5,5.52-13.38,15.3-13.38,4.68,0,8.94.66,13.62,2.64l-3.54,13.26h-.06l-7.92-14.22c-1.2-.3-1.74-.36-2.94-.36-3.06,0-5.7,2.22-5.7,5.52,0,2.64,1.5,4.98,5.94,7.62l7.86,4.74c5.04,3,7.92,6.66,7.92,12.12,0,8.28-6.96,14.28-16.98,14.28-5.1,0-10.32-.78-15.18-2.4Z"/>
        <path class="cls-1" d="M199.82,89.58h3v-21.9l-3.42-2.94,15.42-5.4v30.24h3v.96h-18v-.96ZM202.16,51.6c0-3.96,2.4-6.66,6.66-6.66s6.66,2.7,6.66,6.66-2.4,6.72-6.66,6.72-6.66-2.7-6.66-6.72Z"/>
        <path class="cls-1" d="M251.48,89.64h2.7v.9h-19.08v-.9h3l-7.2-11.46-5.7,11.46h3.78v.9h-9.66v-.9h2.4l8.52-12.48-8.22-13.08-3.78-2.94h20.58l-3.42,2.94,5.94,9.42,5.82-9.42-4.62-2.94h11.76l-4.02,2.94-8.4,10.32,9.6,15.24Z"/>
      </g>
    </g>
  </g>
</svg>